<svg xmlns="http://www.w3.org/2000/svg" width="320" height="240" viewBox="0 0 320 240">
  <defs>
    <linearGradient id="cloud" x1="0" y1="0" x2="0" y2="1">
      <stop offset="0%" stop-color="#FDF2F8"/>
      <stop offset="100%" stop-color="#E0F2FE"/>
    </linearGradient>
    <linearGradient id="spark" x1="0" y1="0" x2="1" y2="1">
      <stop offset="0%" stop-color="#FDE68A"/>
      <stop offset="100%" stop-color="#F9A8D4"/>
    </linearGradient>
    <filter id="shadow" x="-20%" y="-20%" width="140%" height="140%">
      <feDropShadow dx="0" dy="6" stdDeviation="6" flood-color="#93C5FD" flood-opacity="0.35"/>
    </filter>
  </defs>
  <rect width="320" height="240" fill="none"/>
  <g filter="url(#shadow)">
    <circle cx="110" cy="120" r="42" fill="url(#cloud)"/>
    <circle cx="165" cy="102" r="58" fill="url(#cloud)"/>
    <circle cx="220" cy="125" r="40" fill="url(#cloud)"/>
    <rect x="85" y="120" width="170" height="60" rx="30" fill="url(#cloud)"/>
  </g>
  <g>
    <circle cx="145" cy="150" r="6" fill="#334155"/>
    <circle cx="185" cy="150" r="6" fill="#334155"/>
    <path d="M155 166 Q165 176 175 166" fill="none" stroke="#334155" stroke-linecap="round" stroke-width="4"/>
    <ellipse cx="130" cy="160" rx="10" ry="6" fill="#FBCFE8"/>
    <ellipse cx="200" cy="160" rx="10" ry="6" fill="#FBCFE8"/>
  </g>
  <g>
    <path d="M260 60 L268 78 L288 80 L272 92 L276 112 L260 102 L244 112 L248 92 L232 80 L252 78 Z" fill="url(#spark)"/>
  </g>
</svg>
